<svg id="_5.0品类页_ICON更新__画板_1_副本_157" data-name="5.0品类页 ICON更新 _画板 1 副本 157" xmlns="http://www.w3.org/2000/svg" width="48" height="48" viewBox="0 0 48 48">
  <rect id="矩形_17503" data-name="矩形 17503" width="48" height="48" fill="none"/>
  <g id="组_52963" data-name="组 52963">
    <path id="路径_23555" data-name="路径 23555" d="M42.98,18.89h-.19V17.08a5,5,0,0,0-5-5H7.57a5,5,0,0,0-5,5V30.92a5,5,0,0,0,5,5H37.79a5,5,0,0,0,5-5V29.1h.19a2.454,2.454,0,0,0,2.45-2.45V21.34a2.454,2.454,0,0,0-2.45-2.45ZM40.79,30.92a3.009,3.009,0,0,1-3,3H7.57a3.009,3.009,0,0,1-3-3V17.08a3.009,3.009,0,0,1,3-3H37.79a3.009,3.009,0,0,1,3,3Z"/>
    <rect id="矩形_17504" data-name="矩形 17504" width="30.98" height="14.78" rx="2.2" transform="translate(7.19 16.61)"/>
  </g>
</svg>
