<svg id="AI慧眼" xmlns="http://www.w3.org/2000/svg" width="48" height="48" viewBox="0 0 48 48">
  <rect id="矩形_17415" data-name="矩形 17415" width="48" height="48" fill="none"/>
  <g id="组_52905" data-name="组 52905">
    <path id="路径_23477" data-name="路径 23477" d="M38.48,12.5H34.44l-1.43-2.05A5,5,0,0,0,28.9,8.3H19.08a5,5,0,0,0-4.11,2.15L13.54,12.5H9.5a5,5,0,0,0-5,5V34.7a5,5,0,0,0,5,5H38.47a5,5,0,0,0,5-5V17.5a5,5,0,0,0-5-5Zm3,22.2a3.009,3.009,0,0,1-3,3H9.52a3.009,3.009,0,0,1-3-3V17.5a3.009,3.009,0,0,1,3-3h4.25a1.62,1.62,0,0,0,1.31-.68l1.55-2.23a2.99,2.99,0,0,1,2.46-1.29h9.82a2.99,2.99,0,0,1,2.46,1.29l1.55,2.23a1.6,1.6,0,0,0,1.31.69h4.26a3.009,3.009,0,0,1,3,3v17.2Z"/>
    <path id="路径_23478" data-name="路径 23478" d="M24,17.36a8.14,8.14,0,1,0,8.14,8.14A8.147,8.147,0,0,0,24,17.36Zm0,14.27a6.14,6.14,0,1,1,6.14-6.14A6.148,6.148,0,0,1,24,31.63Z"/>
  </g>
</svg>
