<svg id="CPU" xmlns="http://www.w3.org/2000/svg" width="48" height="48" viewBox="0 0 48 48">
  <rect id="矩形_17457" data-name="矩形 17457" width="48" height="48" fill="none"/>
  <g id="组_52952" data-name="组 52952">
    <path id="路径_23535" data-name="路径 23535" d="M16.65,21.84a1.733,1.733,0,0,1,1-.3,1.52,1.52,0,0,1,.92.28,2.029,2.029,0,0,1,.62.78l1.21-.7a2.417,2.417,0,0,0-.99-1.21,3.021,3.021,0,0,0-1.72-.48,3.455,3.455,0,0,0-1.78.47,3.323,3.323,0,0,0-1.27,1.33,4.078,4.078,0,0,0-.46,1.98,4.149,4.149,0,0,0,.47,1.99,3.326,3.326,0,0,0,1.27,1.33,3.445,3.445,0,0,0,1.77.47,3.143,3.143,0,0,0,1.72-.47,2.439,2.439,0,0,0,.99-1.22l-1.21-.7a1.941,1.941,0,0,1-.62.78,1.5,1.5,0,0,1-.92.28,1.733,1.733,0,0,1-1-.3,2.08,2.08,0,0,1-.7-.86,3.109,3.109,0,0,1-.25-1.3,3.062,3.062,0,0,1,.25-1.29,2.006,2.006,0,0,1,.7-.86Z"/>
    <path id="路径_23536" data-name="路径 23536" d="M25.37,20.65a3.585,3.585,0,0,0-1.52-.3H21.33v7.32h1.45v-2.5h1.07a3.746,3.746,0,0,0,1.52-.29,2.309,2.309,0,0,0,1-.84,2.241,2.241,0,0,0,.36-1.26,2.331,2.331,0,0,0-.36-1.28,2.3,2.3,0,0,0-1-.84Zm-.59,3a1.8,1.8,0,0,1-1.09.29h-.91V21.58h.91a1.805,1.805,0,0,1,1.09.3,1.045,1.045,0,0,1,.41.89,1.026,1.026,0,0,1-.41.88Z"/>
    <path id="路径_23537" data-name="路径 23537" d="M32.38,24.36a2.422,2.422,0,0,1-.44,1.58,1.49,1.49,0,0,1-1.21.52,1.511,1.511,0,0,1-1.22-.52,2.422,2.422,0,0,1-.44-1.58V20.35H27.62v4.36a3.354,3.354,0,0,0,.37,1.63,2.567,2.567,0,0,0,1.07,1.07,3.49,3.49,0,0,0,1.67.38,3.339,3.339,0,0,0,1.66-.38,2.626,2.626,0,0,0,1.07-1.07,3.381,3.381,0,0,0,.37-1.63V20.35H32.38v4.01Z"/>
    <path id="路径_23538" data-name="路径 23538" d="M39,4H9A5,5,0,0,0,4,9V39a5,5,0,0,0,5,5H39a5,5,0,0,0,5-5V9A5,5,0,0,0,39,4Zm3,35a3.009,3.009,0,0,1-3,3H9a3.009,3.009,0,0,1-3-3V9A3.009,3.009,0,0,1,9,6H39a3.009,3.009,0,0,1,3,3Z"/>
  </g>
</svg>
