<svg id="超级终端" xmlns="http://www.w3.org/2000/svg" xmlns:xlink="http://www.w3.org/1999/xlink" width="48" height="48" viewBox="0 0 48 48">
  <defs>
    <clipPath id="clip-path">
      <rect id="矩形_16947" data-name="矩形 16947" width="39.984" height="40.005" transform="translate(0 0)" fill="none"/>
    </clipPath>
  </defs>
  <rect id="矩形_14945" data-name="矩形 14945" width="48" height="48" fill="none"/>
  <g id="组_52620" data-name="组 52620" transform="translate(4.008 3.998)">
    <g id="组_52620-2" data-name="组 52620" clip-path="url(#clip-path)">
      <path id="路径_23130" data-name="路径 23130" d="M.49,24.49a1,1,0,0,1,.749-1.2h0a1,1,0,0,1,1.2.749v0A18,18,0,1,0,25.447,2.847h0A18,18,0,0,0,2.83,14.531a1,1,0,0,1-1.255.652l0,0a1,1,0,0,1-.652-1.255l0-.005A20.016,20.016,0,1,1,.49,24.49M6.7,20A13.29,13.29,0,0,1,19.976,6.7h0l.01.01a13.208,13.208,0,0,1,9.4,3.89,1,1,0,0,1-1.41,1.409A11.29,11.29,0,0,0,8.7,19.989h0A11.29,11.29,0,0,0,28.04,27.914a.856.856,0,0,1,.108-.109,1,1,0,1,1,1.311,1.51A13.289,13.289,0,0,1,6.7,20Zm9.484,0a3.8,3.8,0,1,1,3.8,3.8A3.8,3.8,0,0,1,16.18,20Zm13.13-.19a1.5,1.5,0,1,1,1.5,1.5,1.5,1.5,0,0,1-1.5-1.5v0ZM0,19.53a1,1,0,1,1,1,1A1,1,0,0,1,0,19.53Z"/>
    </g>
  </g>
</svg>
