<svg id="显卡" xmlns="http://www.w3.org/2000/svg" xmlns:xlink="http://www.w3.org/1999/xlink" width="48" height="48" viewBox="0 0 48 48">
  <defs>
    <clipPath id="clip-path">
      <rect id="矩形_16946" data-name="矩形 16946" width="40.01" height="33.122" transform="translate(0.005 0.001)" fill="none"/>
    </clipPath>
  </defs>
  <path id="路径_23423" data-name="路径 23423" d="M0,0H48V48H0Z" fill="rgba(0,0,0,0)"/>
  <g id="组_52618" data-name="组 52618" transform="translate(3.99 7.438)">
    <g id="组_52619" data-name="组 52619" clip-path="url(#clip-path)">
      <path id="路径_23129" data-name="路径 23129" d="M32.315,33.121H7.7a1.933,1.933,0,0,1-2-1.841V30.17H5a5,5,0,0,1-5-5V5A5,5,0,0,1,5,0H35.01a5,5,0,0,1,5,5V25.17a5,5,0,0,1-5,5h-.7v1.11a1.924,1.924,0,0,1-1.923,1.842Zm-24.61-2h24.61v-.95H7.7ZM2.005,5v20.17a3.009,3.009,0,0,0,3,3h30a3.009,3.009,0,0,0,3-3V5a3.008,3.008,0,0,0-3-3h-30A3.009,3.009,0,0,0,2,5Zm14.74,10.09a9.54,9.54,0,1,1,9.54,9.54,9.54,9.54,0,0,1-9.54-9.54m2-.01a7.54,7.54,0,1,0,7.54-7.54,7.54,7.54,0,0,0-7.54,7.54m-12.71,5.37a1,1,0,0,1,0-2h4.34a1,1,0,0,1,0,2Zm0-8.74a1,1,0,1,1,0-2h4.34a1,1,0,1,1,0,2Z"/>
    </g>
  </g>
</svg>
