<svg xmlns="http://www.w3.org/2000/svg" viewBox="0 0 650 95"><defs><style>.cls-1{fill:#0078d4;}.cls-2{fill:none;stroke:#fff;stroke-miterlimit:10;stroke-width:2px;}.cls-3{fill:#fff;}</style></defs><g id="图层_2" data-name="图层 2"><g id="Layer_1" data-name="Layer 1"><rect class="cls-1" width="650" height="95"/><line class="cls-2" x1="246.99" y1="25.5" x2="246.99" y2="69.5"/><rect class="cls-3" x="28.51" y="28.32" width="18.23" height="18.23"/><rect class="cls-3" x="48.65" y="28.32" width="18.23" height="18.23"/><rect class="cls-3" x="28.51" y="48.45" width="18.23" height="18.24"/><rect class="cls-3" x="48.65" y="48.45" width="18.23" height="18.24"/><path class="cls-3" d="M105.7,36h4.18L103.6,59H98.93L94.31,41.64h-.1L89.59,59H84.82L78.39,36h4.37l4.48,18.2h.1l5-18.2h4.27l4.67,18.17h.09Z"/><path class="cls-3" d="M111.18,37.74a2.13,2.13,0,0,1,.7-1.62,2.47,2.47,0,0,1,3.36,0,2.16,2.16,0,0,1,.67,1.6,2.09,2.09,0,0,1-.69,1.59,2.41,2.41,0,0,1-1.68.64,2.36,2.36,0,0,1-1.68-.65A2.11,2.11,0,0,1,111.18,37.74Zm4.28,4.77V59h-3.88V42.51Z"/><path class="cls-3" d="M134,48.91V59h-3.88V49.79a6.06,6.06,0,0,0-.76-3.37,2.76,2.76,0,0,0-2.45-1.1,3.44,3.44,0,0,0-2.71,1.23,4.62,4.62,0,0,0-1.07,3.12V59h-3.88V42.51h3.88v2.18h.07a5.77,5.77,0,0,1,2.25-1.9,7,7,0,0,1,3.08-.64,5,5,0,0,1,4,1.68A7.7,7.7,0,0,1,134,48.91Z"/><path class="cls-3" d="M149,34.67h3.89V59H149V56.83h-.06a5.51,5.51,0,0,1-2.22,1.82,7.65,7.65,0,0,1-3.14.6,6.2,6.2,0,0,1-5-2.14,8.75,8.75,0,0,1-1.85-5.92,9.92,9.92,0,0,1,2-6.56,6.76,6.76,0,0,1,5.48-2.46,7,7,0,0,1,2.75.51,4.4,4.4,0,0,1,1.89,1.5H149Zm-4.11,21.59a3.73,3.73,0,0,0,3-1.39A5.45,5.45,0,0,0,149,51.22V49.46a4.15,4.15,0,0,0-1.13-2.93,4,4,0,0,0-6,.29,7,7,0,0,0-1.12,4.24,6,6,0,0,0,1.1,3.83A3.61,3.61,0,0,0,144.89,56.26Z"/><path class="cls-3" d="M155.57,51a8.92,8.92,0,0,1,2.32-6.49,8.52,8.52,0,0,1,6.42-2.39,7.92,7.92,0,0,1,6,2.3,8.71,8.71,0,0,1,2.18,6.23A8.72,8.72,0,0,1,170.21,57a8.34,8.34,0,0,1-6.29,2.38,8.23,8.23,0,0,1-6.09-2.25A8.36,8.36,0,0,1,155.57,51Zm4.05-.13a5.91,5.91,0,0,0,1.17,4,4.18,4.18,0,0,0,3.36,1.36,3.89,3.89,0,0,0,3.22-1.36,6.31,6.31,0,0,0,1.11-4,6.08,6.08,0,0,0-1.15-4,4,4,0,0,0-3.22-1.35,4.06,4.06,0,0,0-3.31,1.42A6.13,6.13,0,0,0,159.62,50.87Z"/><path class="cls-3" d="M194.11,42.51h3.72L193,59h-4.12l-3.26-12h-.06l-3.42,12h-4.08l-4.8-16.5h4l3.06,12.65h.1l3.61-12.65h3.71L191,55.2h.1Z"/><path class="cls-3" d="M202.75,46.84a1.65,1.65,0,0,0,.53,1.31,9.13,9.13,0,0,0,2.34,1.19,8.05,8.05,0,0,1,3.27,2.1,4.4,4.4,0,0,1,.94,2.82A4.54,4.54,0,0,1,208,58a7.63,7.63,0,0,1-4.84,1.41,11.41,11.41,0,0,1-2.28-.25,10.22,10.22,0,0,1-2.11-.63V54.71a9.83,9.83,0,0,0,2.28,1.17,6.67,6.67,0,0,0,2.22.43,3.89,3.89,0,0,0,1.94-.37,1.31,1.31,0,0,0,.63-1.23,1.73,1.73,0,0,0-.65-1.36,10.05,10.05,0,0,0-2.47-1.28,7.64,7.64,0,0,1-3-2,4.43,4.43,0,0,1-.9-2.86,4.52,4.52,0,0,1,1.78-3.67,7.1,7.1,0,0,1,4.6-1.43,11,11,0,0,1,1.94.19,8.8,8.8,0,0,1,1.8.5v3.69a8.38,8.38,0,0,0-1.8-.88,6,6,0,0,0-2-.37,3,3,0,0,0-1.73.43A1.38,1.38,0,0,0,202.75,46.84Z"/><path class="cls-3" d="M293.14,43.64q5.67-3.48,10.56-7.14H278.76V33.75h29.52V37q-6,4.09-12.16,8V57.22c0,2.19-.42,3.71-1.26,4.55s-2.33,1.34-4.55,1.36c-1.21,0-3,0-5.41-.1-.13-1.11-.31-2.18-.53-3.22,2.21.24,4.12.38,5.71.4q3.06,0,3.06-3Z"/><path class="cls-3" d="M311.4,40.62a33.86,33.86,0,0,0,5.91-9.36l2.32.63c-.45.93-.91,1.82-1.38,2.69h6.26v2.05l-2.44,3.56h4.24v20q0,3.32-3.29,3.35c-.95,0-1.94,0-3-.06-.06-.56-.18-1.3-.36-2.23a28,28,0,0,0,2.85.17,1.4,1.4,0,0,0,1.6-1.56V54.46h-3v6.15H319V54.46h-2.95q-.29,6.27-2.73,9.57a12.46,12.46,0,0,0-1.86-1.7q2.46-3.61,2.46-9.72V41.32L313,42.45A18.84,18.84,0,0,0,311.4,40.62Zm3.37-.43h4.63l2.42-3.59h-4.71C316.35,37.9,315.57,39.09,314.77,40.19Zm1.31,6.14H319V42.15h-2.92Zm0,6.18H319V48.29h-2.92Zm8.07-10.36h-3v4.18h3Zm-3,10.36h3V48.29h-3ZM327.67,33h14.94q-.11,3.26-.33,6.11-.24,4-4.29,4c-.93,0-2.07,0-3.42-.1-.13-.93-.28-1.81-.46-2.65a31.91,31.91,0,0,0,3.75.3c1.2,0,1.85-.65,2-1.93.11-1,.19-2.17.23-3.52h-6.29a11.91,11.91,0,0,1-1.18,5.25,12.34,12.34,0,0,1-4.48,4.38,26,26,0,0,0-1.59-2.13,9.54,9.54,0,0,0,3.81-3.28,8.82,8.82,0,0,0,1-4.22h-3.67Zm-.33,21.78h7.83V50h-4c-.47,1.27-1,2.47-1.49,3.59a12.7,12.7,0,0,0-2.16-1,48.73,48.73,0,0,0,3-8.07l2.29.63c-.27.9-.54,1.76-.82,2.59h3.24V44.14h2.46v3.58h5.94V50h-5.94v4.78h6.74V57h-6.74v7h-2.46V57h-7.83Z"/><path class="cls-3" d="M379.07,59.53H374.4l-4.48-16.59a12.37,12.37,0,0,1-.38-2.52h-.07a13.11,13.11,0,0,1-.17,1.4c-.1.55-.17.92-.23,1.12l-4.45,16.59h-4.73l-6.71-23.81h4.32L361.93,53a13.26,13.26,0,0,1,.34,2.57h.1a16.86,16.86,0,0,1,.44-2.6l4.8-17.22h4.22l4.55,17.42a14,14,0,0,1,.38,2.37h.07a16,16,0,0,1,.33-2.47l4.28-17.32h4.15Z"/><path class="cls-3" d="M392.81,36.52a2.07,2.07,0,0,1-.69,1.58,2.52,2.52,0,0,1-3.33,0,2.1,2.1,0,0,1-.68-1.58,2.12,2.12,0,0,1,.69-1.61,2.34,2.34,0,0,1,1.66-.65,2.31,2.31,0,0,1,1.68.66A2.18,2.18,0,0,1,392.81,36.52Zm-4.31,23v-17h3.83v17Z"/><path class="cls-3" d="M408.8,59.53V50a6.31,6.31,0,0,0-.81-3.56,2.91,2.91,0,0,0-2.59-1.17,3.61,3.61,0,0,0-2.88,1.32,4.87,4.87,0,0,0-1.14,3.3v9.66h-3.84v-17h3.84v2.72h.07A6.09,6.09,0,0,1,407,42.11a5.24,5.24,0,0,1,4.19,1.73,7.89,7.89,0,0,1,1.48,5.25V59.53Z"/><path class="cls-3" d="M428.85,59.53V56.87h-.06a6.05,6.05,0,0,1-5.58,3.07,6.32,6.32,0,0,1-5.13-2.29,9.41,9.41,0,0,1-1.91-6.21,10.28,10.28,0,0,1,2.12-6.78A7,7,0,0,1,424,42.11a6.11,6.11,0,0,1,2.85.65,4.9,4.9,0,0,1,2,1.88h.06V34.36h3.84V59.53Zm0-9.93a4.3,4.3,0,0,0-1.21-3.07,4.23,4.23,0,0,0-6.34.31,7.42,7.42,0,0,0-1.18,4.49,6.25,6.25,0,0,0,1.17,4,3.86,3.86,0,0,0,3.17,1.46,4,4,0,0,0,3.13-1.47,5.68,5.68,0,0,0,1.26-3.83Z"/><path class="cls-3" d="M454.16,50.86a9.09,9.09,0,0,1-2.4,6.61,8.58,8.58,0,0,1-6.49,2.47A8.4,8.4,0,0,1,439,57.59a8.59,8.59,0,0,1-2.34-6.36,9.16,9.16,0,0,1,2.39-6.68,8.9,8.9,0,0,1,6.63-2.44,8.2,8.2,0,0,1,6.22,2.34A8.84,8.84,0,0,1,454.16,50.86Zm-4,.14a6.46,6.46,0,0,0-1.25-4.29,4.82,4.82,0,0,0-7,.07,6.5,6.5,0,0,0-1.28,4.31,6.25,6.25,0,0,0,1.28,4.21,4.44,4.44,0,0,0,3.57,1.51A4.2,4.2,0,0,0,449,55.33,6.81,6.81,0,0,0,450.17,51Z"/><path class="cls-3" d="M476.05,59.53H472l-3.12-11.29a5.36,5.36,0,0,1-.18-.92c0-.35-.07-.63-.1-.84h-.07a11.63,11.63,0,0,1-.33,1.73l-3.34,11.32h-4l-5-17h4l3,12a10,10,0,0,1,.25,1.66h.1a8.49,8.49,0,0,1,.3-1.73L467,42.53h3.67l3.2,12a16.19,16.19,0,0,1,.24,1.7h.1a11.26,11.26,0,0,1,.28-1.7l2.89-12h3.7Z"/><path class="cls-3" d="M494.1,54.66a4.65,4.65,0,0,1-1.83,3.83,7.71,7.71,0,0,1-4.94,1.45,11.9,11.9,0,0,1-2.3-.26,9.78,9.78,0,0,1-2.15-.67V55.34a8.19,8.19,0,0,0,2.32,1.18,7.28,7.28,0,0,0,2.27.42q2.76,0,2.76-1.83a1.75,1.75,0,0,0-.27-1,2.92,2.92,0,0,0-.95-.79,19.16,19.16,0,0,0-2.08-1A10.48,10.48,0,0,1,484.46,51a4.18,4.18,0,0,1-1.19-1.57,5.16,5.16,0,0,1-.39-2.09,4.55,4.55,0,0,1,1.81-3.73,7.21,7.21,0,0,1,4.68-1.45,11.07,11.07,0,0,1,2,.21,9.06,9.06,0,0,1,1.82.51V46.3a6.73,6.73,0,0,0-1.85-.86,7.4,7.4,0,0,0-2.11-.32,2.92,2.92,0,0,0-1.81.51,1.6,1.6,0,0,0-.66,1.31,1.91,1.91,0,0,0,.52,1.41,9.06,9.06,0,0,0,2.47,1.28,8.51,8.51,0,0,1,3.37,2.15A4.35,4.35,0,0,1,494.1,54.66Z"/><path class="cls-3" d="M513.36,35.19V59.53H509.5V39.91a14.93,14.93,0,0,1-5,2.19V38.81a28.1,28.1,0,0,0,3.92-1.6,26.82,26.82,0,0,0,3.3-2Z"/><path class="cls-3" d="M527,35.19V59.53h-3.86V39.91a14.93,14.93,0,0,1-5,2.19V38.81a28.1,28.1,0,0,0,3.92-1.6,26.82,26.82,0,0,0,3.3-2Z"/></g></g></svg>