<svg xmlns="http://www.w3.org/2000/svg" width="597.779" height="76.918" viewBox="0 0 597.779 76.918">
  <g id="组_55323" data-name="组 55323" transform="translate(-34.911 -26.949)">
    <path id="路径_53099" data-name="路径 53099" d="M63.966,44.756H43.83V27.024H34.911V70.977H43.83V53.127H63.966v17.85h8.917V27.024H63.966Z" transform="translate(0 0.058)"/>
    <path id="路径_53100" data-name="路径 53100" d="M92.334,52.182c0,7.147-3.549,10.963-9.991,10.963-6.481,0-10.049-3.924-10.049-11.265V27.052H63.377v25.13c0,12.363,6.87,19.454,18.848,19.454,12.091,0,19.026-7.223,19.026-19.818V27.025H92.334Z" transform="translate(21.869 0.058)"/>
    <path id="路径_53101" data-name="路径 53101" d="M158.216,57.25l-9.98-30.23h-7.278l-9.978,30.23-9.708-30.2H111.78L127.1,70.981h7.386l9.994-28.861,9.99,28.861h7.448l15.279-43.934h-9.248Z" transform="translate(59.053 0.055)"/>
    <path id="路径_53102" data-name="路径 53102" d="M161.637,52.049h16.222V44.043H161.637V35.048h23.546V27.041H152.84V70.936h33.19v-8H161.637Z" transform="translate(90.598 0.071)"/>
    <rect id="矩形_24103" data-name="矩形 24103" width="8.797" height="43.895" transform="translate(287.263 27.08)"/>
    <path id="路径_53103" data-name="路径 53103" d="M120.573,61.8l3.947,9.149h9.347L114.573,27.024h-7.858L87.353,70.95h9.1l4-9.149ZM110.494,38.146l6.763,15.732H103.775Z" transform="translate(40.288 0.058)"/>
    <path id="路径_53104" data-name="路径 53104" d="M209.272,41.843q-.735-1.8-1.574-4.251t-1.369-4.223q.119,1.711.207,4.817t.088,5.913V71.165h-5.091V27.03h7.3L220.04,54.7a80.81,80.81,0,0,1,3.471,9.939q1.294-4.116,3.678-9.847L238.632,27.03h7.121V71.165H240.28V44.1q0-3.75.414-10.73a97.2,97.2,0,0,1-3.384,9.357l-11.826,28.5h-4.325Z" transform="translate(128.006 0.062)"/>
    <path id="路径_53105" data-name="路径 53105" d="M251.54,66.477a30.712,30.712,0,0,1-.47-4.541,14.609,14.609,0,0,1-4.6,3.657,13.259,13.259,0,0,1-6.281,1.494,10.781,10.781,0,0,1-4.914-1.1,8.185,8.185,0,0,1-3.441-3.262,10.28,10.28,0,0,1-1.264-5.273,9.51,9.51,0,0,1,3.294-7.573q3.294-2.851,10.945-2.852a45.74,45.74,0,0,1,6.088.428v-.822q0-5.061-1.97-7.1a7.33,7.33,0,0,0-5.531-2.041,18.445,18.445,0,0,0-4.9.7,25.407,25.407,0,0,0-4.514,1.675l-.942-4.3a23.828,23.828,0,0,1,4.78-1.662,25.677,25.677,0,0,1,6.371-.776,14.588,14.588,0,0,1,6.486,1.31,9.033,9.033,0,0,1,4.15,4.451,20.106,20.106,0,0,1,1.483,8.473V60.29q0,2.042.235,6.187Zm-4.78-5.135a12.264,12.264,0,0,0,4.132-3.278V50.992a48.443,48.443,0,0,0-5.443-.334q-5.268,0-7.31,1.768a5.963,5.963,0,0,0-2.044,4.753,5.422,5.422,0,0,0,1.455,4.178,5.566,5.566,0,0,0,3.927,1.34,11.425,11.425,0,0,0,5.282-1.356" transform="translate(150.308 4.751)"/>
    <path id="路径_53106" data-name="路径 53106" d="M254.277,68.072q-2.252-2.377-2.251-7.893V41.494h-4.178l.736-3.811,3.618-.548.414-7.589,4.765-.792v8.381h9.414l-.736,4.359h-8.679V59.631a7.7,7.7,0,0,0,1.176,4.753,4.394,4.394,0,0,0,3.678,1.494,14.084,14.084,0,0,0,4.53-.944l.942,3.931a16.1,16.1,0,0,1-3.119,1.128,15.169,15.169,0,0,1-3.825.458,8.507,8.507,0,0,1-6.486-2.378" transform="translate(163.586 1.387)"/>
    <path id="路径_53107" data-name="路径 53107" d="M286.569,50.322h-21.1q.061,6.127,2.693,9.19t7.605,3.064a20.3,20.3,0,0,0,8.915-2.1l1.264,4.024a22.876,22.876,0,0,1-5.047,1.92,25.588,25.588,0,0,1-6.192.67,15.4,15.4,0,0,1-8.047-1.98,12.462,12.462,0,0,1-5-5.717,21.624,21.624,0,0,1-1.692-8.976,22.413,22.413,0,0,1,1.766-9.3,13.436,13.436,0,0,1,4.926-5.943,13.13,13.13,0,0,1,7.282-2.041,11.551,11.551,0,0,1,7.075,2.1,12.377,12.377,0,0,1,4.194,5.533,20.17,20.17,0,0,1,1.353,7.453Zm-5.443-3.963q-.294-4.509-2.221-6.781a6.427,6.427,0,0,0-5.163-2.27,6.885,6.885,0,0,0-5.312,2.3,12.306,12.306,0,0,0-2.72,6.751Z" transform="translate(172.9 4.751)"/>
    <path id="路径_53108" data-name="路径 53108" d="M285.7,69.259a15.48,15.48,0,0,1-5.163-7.23,32.907,32.907,0,0,1-1.842-11.723,34.724,34.724,0,0,1,2.09-12.834,16.8,16.8,0,0,1,5.918-7.877,17.021,17.021,0,0,1,18.685.3l-1.45,4.391a11.341,11.341,0,0,0-3.7-2.106,13.284,13.284,0,0,0-4.484-.78,9.793,9.793,0,0,0-8.254,4.072q-3.063,4.074-3.409,12.219a13.1,13.1,0,0,1,4.73-3.231,15.664,15.664,0,0,1,6.122-1.218,11.748,11.748,0,0,1,6.166,1.593,10.541,10.541,0,0,1,4.1,4.613,16.5,16.5,0,0,1,1.452,7.2,17.817,17.817,0,0,1-1.669,7.938,12.438,12.438,0,0,1-4.67,5.245,13.666,13.666,0,0,1-14.625-.571m11.723-3.232a7.99,7.99,0,0,0,2.769-3.563,14.444,14.444,0,0,0,1.017-5.726q0-4.477-1.915-6.733a6.975,6.975,0,0,0-5.628-2.254,12.048,12.048,0,0,0-5.441,1.263,13.407,13.407,0,0,0-4.134,3.066,24.743,24.743,0,0,0,1.3,8.461,11.106,11.106,0,0,0,3.4,5.052,7.455,7.455,0,0,0,4.672,1.639,6.841,6.841,0,0,0,3.961-1.2" transform="translate(187.28 0)"/>
    <path id="路径_53109" data-name="路径 53109" d="M301.307,66.027q-3.44-5.649-3.437-16.324,0-10.88,3.554-16.818a11.653,11.653,0,0,1,10.691-5.936,11.363,11.363,0,0,1,10.374,5.607q3.435,5.6,3.436,16.335,0,10.885-3.538,16.835a11.667,11.667,0,0,1-10.735,5.952,11.315,11.315,0,0,1-10.344-5.651m17.032-3.487q2.1-4.628,2.1-13.467,0-8.419-1.972-13.046T312.03,31.4q-8.617,0-8.618,18.275,0,8.509,1.973,13t6.382,4.495q4.469,0,6.573-4.629" transform="translate(202.014 0)"/>
    <path id="路径_53110" data-name="路径 53110" d="M326.9,27.308h11.005q7.981,0,12.183,3.28t4.2,9.508a14.248,14.248,0,0,1-1.98,7.573,13.186,13.186,0,0,1-5.549,5.02,18.131,18.131,0,0,1-8.162,1.768,26.66,26.66,0,0,1-6.016-.695V71.088H326.9Zm18.851,20.031a8.944,8.944,0,0,0,2.827-7.031q0-4.443-2.767-6.44t-8.028-1.995h-5.2V49.349a28.31,28.31,0,0,0,4.956.515q5.384,0,8.21-2.525" transform="translate(224.319 0.276)"/>
    <path id="路径_53111" data-name="路径 53111" d="M345.525,42.159q0-2.719-.244-8.162h5.142q.18,1.358.332,3.278t.21,3.04a29.379,29.379,0,0,1,2.6-3.628,10.34,10.34,0,0,1,2.992-2.4,8.2,8.2,0,0,1,3.933-.923,10.441,10.441,0,0,1,2.962.394l-.787,4.928a9.455,9.455,0,0,0-2.419-.3,7.724,7.724,0,0,0-4.744,1.528,21.031,21.031,0,0,0-4.415,4.94V66.437h-5.563Z" transform="translate(238.437 4.925)"/>
    <path id="路径_53112" data-name="路径 53112" d="M362.931,65.092a13.585,13.585,0,0,1-5.338-5.669,19.045,19.045,0,0,1-1.934-8.889,20.157,20.157,0,0,1,1.934-9.085,14.233,14.233,0,0,1,5.4-5.987,15.049,15.049,0,0,1,7.966-2.1,14.878,14.878,0,0,1,7.832,2.056,13.9,13.9,0,0,1,5.321,5.879,19.814,19.814,0,0,1,1.9,8.935,19.257,19.257,0,0,1-1.98,9.025,13.919,13.919,0,0,1-5.457,5.791,15.57,15.57,0,0,1-7.892,1.995,15.31,15.31,0,0,1-7.754-1.95m15.011-5.669q2.265-3.175,2.267-8.8,0-5.864-2.4-9.343a8.036,8.036,0,0,0-7.059-3.476,7.916,7.916,0,0,0-7,3.372q-2.31,3.371-2.313,9.025a17.8,17.8,0,0,0,1.119,6.652,8.648,8.648,0,0,0,8.556,5.743,7.842,7.842,0,0,0,6.832-3.174" transform="translate(246.409 4.926)"/>
    <path id="路径_53142" data-name="路径 53142" d="M0,0H66.8V21.93H0Z" transform="translate(565.891 81.938)" fill="#c8102e"/>
    <path id="路径_53113" data-name="路径 53113" d="M347.668,65.765q0-1.581-.083-2.64.406,1.324.76,2.226l2.663,6.733h1.429l2.635-6.417q.419-1.045.865-2.543-.106,1.549-.106,2.64v6.3h1.858V61.176h-2.52l-2.589,6.357a22.079,22.079,0,0,0-.767,2.226,16.178,16.178,0,0,0-.737-2.226l-2.513-6.357h-2.61V72.068h1.715Z" transform="translate(238.953 26.294)" fill="#fff"/>
    <path id="路径_53114" data-name="路径 53114" d="M356.364,69.154h4.364l1.091,2.918h2.016l-4.371-10.9h-1.812l-4.274,10.9H355.3Zm1.708-4.62c.166-.479.318-.951.46-1.413.154.522.313,1,.474,1.429l1.165,3.121h-3.257Z" transform="translate(244.657 26.291)" fill="#fff"/>
    <path id="路径_53115" data-name="路径 53115" d="M362.049,71.619a5.786,5.786,0,0,0,2.843.667,9.186,9.186,0,0,0,2.042-.233,9.609,9.609,0,0,0,1.961-.67V66.794h-4.327v1.445h2.521v2.2a5.74,5.74,0,0,1-1.017.263,6.573,6.573,0,0,1-1.082.09,3.49,3.49,0,0,1-1.984-.527,3.048,3.048,0,0,1-1.149-1.429,5.467,5.467,0,0,1-.366-2.069,5.022,5.022,0,0,1,.474-2.272,3.3,3.3,0,0,1,1.328-1.425,3.959,3.959,0,0,1,1.991-.486,6.588,6.588,0,0,1,2.827.707l.474-1.429a7.775,7.775,0,0,0-1.591-.568,7.592,7.592,0,0,0-1.793-.207,6.344,6.344,0,0,0-2.879.642A4.8,4.8,0,0,0,360.3,63.66a6.1,6.1,0,0,0-.746,3.117,6.277,6.277,0,0,0,.647,2.935,4.51,4.51,0,0,0,1.851,1.906" transform="translate(249.399 26.229)" fill="#fff"/>
    <path id="路径_53116" data-name="路径 53116" d="M346.128,61.174h-2.962L342.082,62.8l1.452,2.214Z" transform="translate(235.979 26.293)" fill="#fff"/>
    <path id="路径_53117" data-name="路径 53117" d="M372.692,70.5H368.1V67.181h4.108V65.727H368.1v-3h4.355l.18-1.551h-6.417V72.07h6.313Z" transform="translate(254.524 26.294)" fill="#fff"/>
    <path id="路径_53118" data-name="路径 53118" d="M338.34,72.09h2.879l3.726-5.685-3.6-5.232H338.32l3.842,5.352Z" transform="translate(233.089 26.292)" fill="#fff"/>
    <path id="路径_53119" data-name="路径 53119" d="M346.123,69.016l-2.594-3.841-1.452,2.214,1.084,1.627Z" transform="translate(235.976 29.367)" fill="#fff"/>
  </g>
</svg>
