<svg xmlns="http://www.w3.org/2000/svg" xmlns:xlink="http://www.w3.org/1999/xlink" width="126" height="58" viewBox="0 0 126 58">
                        <defs>
                            <linearGradient id="linear-gradient-design" x1="0.676" y1="-1.241" x2="0.482" y2="1.122" gradientUnits="objectBoundingBox">
                            <stop offset="0" stop-color="#283332"></stop>
                            <stop offset="0.493" stop-color="#ccfffa"></stop>
                            <stop offset="1" stop-color="#385c58"></stop>
                            </linearGradient>
                        </defs>
                        <g id="设计" transform="translate(-927 -3336)">
                            <path id="路径_53378" data-name="路径 53378" d="M-22.762-19.456q-1.024-1.184-2.64-2.768t-2.768-2.544l1.664-1.76a31.367,31.367,0,0,1,2.592,2.24q1.6,1.5,2.976,2.912Zm8.7-1.728a5.785,5.785,0,0,1-1.088,3.36A13.444,13.444,0,0,1-19.018-14.5L-20.81-16.48a18.012,18.012,0,0,0,2.7-1.92,4.382,4.382,0,0,0,1.232-1.728,6.73,6.73,0,0,0,.32-2.24V-25.5h10.88V-19.3a1.258,1.258,0,0,0,.288.96,1.267,1.267,0,0,0,.864.256H-1.29l-.352,2.4H-4.81a4.6,4.6,0,0,1-2.608-.576,2.5,2.5,0,0,1-.816-2.176v-4.8h-5.824ZM-18.634-4.032-23.786.192A18.945,18.945,0,0,0-25.354,1.6L-26.922-.384a4.537,4.537,0,0,0,.816-.992,2.263,2.263,0,0,0,.176-.992v-12h-4.192V-16.7h6.656V-3.232q.576-.448,1.76-1.44t1.92-1.6Zm16.448,6.3a37.982,37.982,0,0,1-8.768-4.608,42.338,42.338,0,0,1-9.152,4.672L-21.386.064a37.785,37.785,0,0,0,8.48-4,20.039,20.039,0,0,1-4.992-7.3h-1.728v-2.336h15.9V-11.2A18.861,18.861,0,0,1-9.034-3.84,32.555,32.555,0,0,0-.97-.16Zm-13.12-13.5a17.305,17.305,0,0,0,4.32,5.888,14.976,14.976,0,0,0,4.544-5.888Zm37.268-5.152h8.256v2.656H21.962V2.336H19.338V-13.728H11.146v-2.656h8.192V-26.848h2.624ZM8.618-19.232Q6.026-22.24,3.5-24.992L5.514-26.72q1.056,1.152,1.312,1.408Q9.642-22.24,10.7-21.024Zm-.384,15.9L13.8-7.552l.9,2.56-1.344.96Q9.258-1.12,7.946-.064q-1.28,1.088-1.7,1.5L4.618-.512a2.761,2.761,0,0,0,.8-.88A2.5,2.5,0,0,0,5.61-2.464V-14.08H1.066v-2.656H8.234Z" transform="translate(990.157 3376)" fill="#89a2a0"></path>
                            <path id="矩形_24136" data-name="矩形 24136" d="M29,1A28.008,28.008,0,0,0,18.1,54.8,27.824,27.824,0,0,0,29,57H97A28.008,28.008,0,0,0,107.9,3.2,27.824,27.824,0,0,0,97,1H29m0-1H97a29,29,0,0,1,0,58H29A29,29,0,0,1,29,0Z" transform="translate(927 3336)" fill="url(#linear-gradient-design)"></path>
                        </g>
                    </svg>