<svg xmlns="http://www.w3.org/2000/svg" xmlns:xlink="http://www.w3.org/1999/xlink" width="48" height="48" viewBox="0 0 48 48">
  <defs>
    <clipPath id="clip-path">
      <rect id="矩形_16956" data-name="矩形 16956" width="40" height="30" fill="none"/>
    </clipPath>
  </defs>
  <g id="键盘" transform="translate(0 -0.418)">
    <rect id="矩形_14808" data-name="矩形 14808" width="48" height="48" transform="translate(0 0.418)" fill="none"/>
    <g id="组_52630" data-name="组 52630" transform="translate(4 9.418)">
      <g id="组_52630-2" data-name="组 52630" clip-path="url(#clip-path)">
        <path id="路径_23139" data-name="路径 23139" d="M5,30a5,5,0,0,1-5-5V5A5,5,0,0,1,5,0H35a5,5,0,0,1,5,5V25a5,5,0,0,1-5,5ZM2,5V25a3.009,3.009,0,0,0,3,3H35a3.009,3.009,0,0,0,3-3V5a3.009,3.009,0,0,0-3-3H5A3.009,3.009,0,0,0,2,5M9.681,23.17a1.25,1.25,0,0,1,0-2.5l20.66.07a1.25,1.25,0,1,1,0,2.5Zm14.89-8.33a1.83,1.83,0,0,1,1.83-1.83h0a1.829,1.829,0,0,1,1.83,1.828v0A1.829,1.829,0,0,1,26.4,16.67h0a1.83,1.83,0,0,1-1.832-1.828v0Zm-6.4,0A1.83,1.83,0,0,1,20,13.01h0a1.829,1.829,0,0,1,1.831,1.829h0A1.83,1.83,0,0,1,20,16.67h0a1.829,1.829,0,0,1-1.831-1.827v0Zm-6.4,0A1.829,1.829,0,0,1,13.6,13.01h0a1.83,1.83,0,0,1,1.831,1.829h0a1.83,1.83,0,0,1-1.83,1.83h0a1.829,1.829,0,0,1-1.831-1.827v0Zm15.99-6.4a1.829,1.829,0,0,1,1.828-1.83h0a1.829,1.829,0,0,1,1.83,1.828v0a1.829,1.829,0,0,1-1.828,1.83h0A1.829,1.829,0,0,1,27.76,8.443v0Zm-6.39,0A1.829,1.829,0,0,1,23.2,6.61h0A1.83,1.83,0,1,1,21.37,8.443v0Zm-6.4,0A1.83,1.83,0,0,1,16.8,6.61h0a1.83,1.83,0,1,1-1.833,1.833v0Zm-6.389,0A1.829,1.829,0,0,1,10.41,6.61h0A1.83,1.83,0,1,1,8.58,8.444v0Z"/>
      </g>
    </g>
  </g>
</svg>
