<svg xmlns="http://www.w3.org/2000/svg" width="48" height="48" viewBox="0 0 48 48">
  <g id="p3广色域" transform="translate(0 -0.418)">
    <g id="组_49166" data-name="组 49166" transform="translate(0 1.22)">
      <path id="路径_13072" data-name="路径 13072" d="M35.4,18.5a11.735,11.735,0,1,0-22.81,0A11.734,11.734,0,1,0,24,38.13,11.732,11.732,0,1,0,35.4,18.5ZM14.26,15.76a9.74,9.74,0,1,1,19.48,0,9.6,9.6,0,0,1-.3,2.36,11.509,11.509,0,0,0-1.18-.06A11.672,11.672,0,0,0,24,21.47a11.672,11.672,0,0,0-8.26-3.41,11.51,11.51,0,0,0-1.18.06,9.848,9.848,0,0,1-.3-2.36Zm7.23,9.4a9.648,9.648,0,0,1-4.38-2.52,9.53,9.53,0,0,1-1.83-2.56c.15,0,.3-.02.46-.02a9.672,9.672,0,0,1,6.96,2.95A11.636,11.636,0,0,0,21.49,25.16Zm3.8-2.15a9.73,9.73,0,0,1,6.96-2.95c.15,0,.3.02.45.02a9.765,9.765,0,0,1-6.2,5.07A11.636,11.636,0,0,0,25.29,23Zm-.86,2.47c-.14,0-.29.02-.43.02h0c-.14,0-.29-.01-.43-.02.14-.27.27-.55.43-.81C24.16,24.93,24.29,25.2,24.43,25.48ZM15.74,39.54h0a9.73,9.73,0,0,1-2.52-19.13,11.719,11.719,0,0,0,7.63,6.65,11.811,11.811,0,0,0-.33,2.74,11.647,11.647,0,0,0,2.18,6.79A9.73,9.73,0,0,1,15.74,39.54ZM24,34.93a9.477,9.477,0,0,1-1.17-7.49,11.243,11.243,0,0,0,2.32,0,9.477,9.477,0,0,1-1.17,7.49Zm8.26,4.61h0a9.672,9.672,0,0,1-6.96-2.95,11.647,11.647,0,0,0,2.18-6.79,11.317,11.317,0,0,0-.33-2.75,11.771,11.771,0,0,0,7.62-6.65,9.735,9.735,0,0,1-2.52,19.14Z"/>
    </g>
    <rect id="矩形_14772" data-name="矩形 14772" width="48" height="48" transform="translate(0 0.418)" fill="none"/>
  </g>
</svg>
