<svg id="_MatePad_Pro_13.2_英寸前置摄像头_" data-name=" MatePad Pro 13.2 英寸前置摄像头 " xmlns="http://www.w3.org/2000/svg" width="48" height="48" viewBox="0 0 48 48">
  <rect id="矩形_17315" data-name="矩形 17315" width="48" height="48" fill="none"/>
  <path id="路径_23416" data-name="路径 23416" d="M39,10H9a5,5,0,0,0-5,5V33a5,5,0,0,0,5,5H39a5,5,0,0,0,5-5V15A5,5,0,0,0,39,10Zm3,23a3.009,3.009,0,0,1-3,3H9a3.009,3.009,0,0,1-3-3V15a3.009,3.009,0,0,1,3-3h8.87c.2,0,.41.08.59.44l.1.26a1.531,1.531,0,0,0,1.45.87h7.97a1.531,1.531,0,0,0,1.45-.87l.1-.26c.18-.36.39-.43.59-.43h8.87a3,3,0,0,1,3,2.99V33Z"/>
</svg>
