<svg xmlns="http://www.w3.org/2000/svg" width="48" height="48" viewBox="0 0 48 48">
  <g id="HUAWEI_M-Pencil" data-name="HUAWEI M-Pencil" transform="translate(0 -0.418)">
    <g id="组_49188" data-name="组 49188" transform="translate(2.662 0.423)">
      <path id="路径_13112" data-name="路径 13112" d="M32.54,4.4a2.219,2.219,0,0,0-3.2.71L11.8,35.5a5.153,5.153,0,0,0-.36.79l-.53,1.58a.2.2,0,0,0,.09.24l2.79,1.61a.2.2,0,0,0,.25-.04l1.1-1.25a5.105,5.105,0,0,0,.51-.71L33.11,7.47a2.321,2.321,0,0,0-.57-3.06Z"/>
      <path id="路径_13113" data-name="路径 13113" d="M10.77,38.98a.2.2,0,0,0-.3.13L9.35,43.55a.334.334,0,0,0,.25.42.339.339,0,0,0,.33-.09l3.41-3.16a.209.209,0,0,0-.05-.33l-2.53-1.42Z"/>
    </g>
    <rect id="矩形_14839" data-name="矩形 14839" width="48" height="48" transform="translate(0 0.418)" fill="none"/>
  </g>
</svg>
