<svg id="_120hz" data-name="120hz" xmlns="http://www.w3.org/2000/svg" width="48" height="48" viewBox="0 0 48 48">
  <rect id="矩形_14890" data-name="矩形 14890" width="48" height="48" fill="none"/>
  <g id="组_52947" data-name="组 52947">
    <path id="路径_23524" data-name="路径 23524" d="M8.28,21.61V23l1.9-1.06v5.73h1.47V20.34H10.52Z"/>
    <path id="路径_23525" data-name="路径 23525" d="M17.19,25.01a8.15,8.15,0,0,0,1.08-1.42,2.4,2.4,0,0,0,.3-1.17,2.37,2.37,0,0,0-.27-1.14,2,2,0,0,0-.79-.79,2.461,2.461,0,0,0-1.21-.29,2.718,2.718,0,0,0-1.57.47,2.434,2.434,0,0,0-.94,1.37l1.14.66a2.028,2.028,0,0,1,.49-.87,1.044,1.044,0,0,1,.74-.3.843.843,0,0,1,.65.26.966.966,0,0,1,.24.69,1.481,1.481,0,0,1-.22.75,8.643,8.643,0,0,1-.79,1l-2.21,2.48v.94h5.05V26.38H15.95l1.25-1.39Z"/>
    <path id="路径_23526" data-name="路径 23526" d="M22.27,20.21a2.176,2.176,0,0,0-1.91.97,4.947,4.947,0,0,0-.68,2.83,4.911,4.911,0,0,0,.68,2.82,2.38,2.38,0,0,0,3.82,0,4.894,4.894,0,0,0,.67-2.82,4.952,4.952,0,0,0-.67-2.83A2.176,2.176,0,0,0,22.27,20.21Zm.79,5.64a.845.845,0,0,1-.79.61.833.833,0,0,1-.79-.61,5.024,5.024,0,0,1-.25-1.84,5.244,5.244,0,0,1,.25-1.87.818.818,0,0,1,1.58.01,5.146,5.146,0,0,1,.25,1.86A4.988,4.988,0,0,1,23.06,25.85Z"/>
    <path id="路径_23527" data-name="路径 23527" d="M32.91,23.23h-3.3V20.35H28.16v7.32h1.45V24.52h3.3v3.15h1.46V20.35H32.91Z"/>
    <path id="路径_23528" data-name="路径 23528" d="M39.57,23.3v-.8H35.58v1.1h2.19l-2.36,3.26v.81h4.31V26.56H37.21Z"/>
    <path id="路径_23529" data-name="路径 23529" d="M39,4H9A5,5,0,0,0,4,9V39a5,5,0,0,0,5,5H39a5,5,0,0,0,5-5V9A5,5,0,0,0,39,4Zm3,35a3.009,3.009,0,0,1-3,3H9a3.009,3.009,0,0,1-3-3V9A3.009,3.009,0,0,1,9,6H39a3.009,3.009,0,0,1,3,3Z"/>
  </g>
</svg>
