<svg xmlns="http://www.w3.org/2000/svg" width="48" height="48" viewBox="0 0 48 48">
  <g id="MatePad_Air前置摄像头" data-name="MatePad Air前置摄像头" transform="translate(-541 -2910)">
    <g id="前置摄像头" transform="translate(541 2910)">
      <g id="组_52763" data-name="组 52763">
        <g id="组_52764" data-name="组 52764">
          <path id="路径_23208" data-name="路径 23208" d="M39,38H9a5.006,5.006,0,0,1-5-5V15a5.006,5.006,0,0,1,5-5H39a5.006,5.006,0,0,1,5,5V33a5.006,5.006,0,0,1-5,5M9,12a3,3,0,0,0-3,3V33a3,3,0,0,0,3,3H39a3,3,0,0,0,3-3V15a3,3,0,0,0-3-3Z"/>
          <path id="路径_23209" data-name="路径 23209" d="M24,12.91a1.25,1.25,0,1,1-1.25,1.25A1.251,1.251,0,0,1,24,12.91"/>
        </g>
        <rect id="矩形_17135" data-name="矩形 17135" width="48" height="48" fill="none"/>
      </g>
    </g>
  </g>
</svg>
